<?xml version="1.0" standalone="no"?>
<!DOCTYPE svg PUBLIC "-//W3C//DTD SVG 20010904//EN"
 "http://www.w3.org/TR/2001/REC-SVG-20010904/DTD/svg10.dtd">
<svg version="1.0" xmlns="http://www.w3.org/2000/svg"
 width="256.000000pt" height="256.000000pt" viewBox="0 0 256.000000 256.000000"
 preserveAspectRatio="xMidYMid meet">
<metadata>
Created by potrace 1.11, written by Peter Selinger 2001-2013
</metadata>
<g transform="translate(0.000000,256.000000) scale(0.100000,-0.100000)"
fill="#000000" stroke="none">
<path d="M611 1965 c-135 -31 -252 -108 -308 -203 -34 -58 -43 -163 -19 -225
17 -46 72 -105 121 -130 27 -14 28 -16 10 -22 -11 -4 -52 -22 -92 -41 -130
-62 -194 -161 -194 -299 0 -148 105 -251 310 -303 104 -26 404 -23 539 6 56
13 125 31 152 42 l49 19 20 -33 c34 -54 97 -71 164 -42 42 17 109 91 176 193
52 80 53 81 84 72 18 -5 59 -9 93 -9 l61 0 16 -59 c23 -81 70 -139 142 -176
54 -28 66 -30 164 -30 101 0 109 2 181 36 160 77 238 177 209 267 -16 48 -42
41 -114 -27 -134 -129 -299 -167 -374 -87 l-23 24 58 17 c157 46 244 128 260
247 18 133 -76 228 -214 216 -112 -11 -218 -91 -267 -202 -21 -48 -27 -54 -62
-59 -73 -13 -73 -13 -57 40 8 25 14 73 14 105 0 53 -3 63 -30 90 -27 27 -36
30 -75 26 -58 -7 -98 -38 -129 -100 -28 -56 -34 -123 -15 -176 10 -30 7 -39
-53 -134 l-63 -103 -6 45 c-4 25 -10 132 -15 239 -8 216 -13 231 -76 231 -104
-1 -112 -22 -103 -255 l7 -181 -73 -22 c-241 -72 -509 -80 -636 -20 -96 45
-128 150 -71 235 46 70 179 123 308 123 70 0 100 27 100 90 0 26 -6 52 -12 57
-7 6 -45 13 -85 16 -128 10 -193 64 -193 160 0 112 86 183 234 194 86 6 144
-8 177 -43 23 -24 24 -32 21 -126 -2 -82 1 -104 14 -119 44 -49 130 -26 165
43 29 57 32 163 6 230 -23 59 -99 130 -165 153 -66 23 -248 29 -331 10z m1511
-702 c25 -22 23 -73 -4 -113 -21 -31 -83 -70 -135 -85 -21 -6 -23 -3 -23 28 0
55 29 124 66 157 39 34 69 38 96 13z"/>
</g>
</svg>
